<svg width="17" height="17" viewBox="0 0 17 17" fill="none" xmlns="http://www.w3.org/2000/svg">
<path fill-rule="evenodd" clip-rule="evenodd" d="M11.8324 4.10657H14.157C14.7053 4.10657 15.1282 4.58953 15.0557 5.13306L13.8326 14.3064C13.7725 14.7568 13.3883 15.0932 12.9339 15.0932H3.06743C2.61301 15.0932 2.22877 14.7568 2.16871 14.3064L0.945604 5.13306C0.873133 4.58953 1.29598 4.10657 1.84432 4.10657H4.16884C4.49585 2.28709 6.08702 0.906494 8.00063 0.906494C9.91425 0.906494 11.5054 2.28708 11.8324 4.10657ZM4.1073 5.49323H2.39256L3.48768 13.7066H12.5136L13.6087 5.49323H11.894V6.93316H10.5073V5.49323H5.49397V6.93316H4.1073V5.49323ZM5.59107 4.10657H10.4102C10.1095 3.05938 9.14453 2.29316 8.00063 2.29316C6.85674 2.29316 5.89181 3.05938 5.59107 4.10657Z" fill="white"/>
</svg>
