<svg width="16" height="16" viewBox="0 0 16 16" fill="none" xmlns="http://www.w3.org/2000/svg">
<path d="M8.1125 10.6504C8.38703 9.8736 9.1279 9.31706 9.9987 9.31706C10.8695 9.31706 11.6104 9.8736 11.8849 10.6504H14.6654V11.9837H11.8849C11.6104 12.7605 10.8695 13.3171 9.9987 13.3171C9.1279 13.3171 8.38703 12.7605 8.1125 11.9837H1.33203V10.6504H8.1125ZM4.1125 3.98372C4.38706 3.20693 5.12788 2.65039 5.9987 2.65039C6.8695 2.65039 7.61037 3.20693 7.8849 3.98372H14.6654V5.31706H7.8849C7.61037 6.09385 6.8695 6.65039 5.9987 6.65039C5.12788 6.65039 4.38706 6.09385 4.1125 5.31706H1.33203V3.98372H4.1125ZM5.9987 5.31706C6.36688 5.31706 6.66536 5.01858 6.66536 4.65039C6.66536 4.2822 6.36688 3.98372 5.9987 3.98372C5.63051 3.98372 5.33203 4.2822 5.33203 4.65039C5.33203 5.01858 5.63051 5.31706 5.9987 5.31706ZM9.9987 11.9837C10.3669 11.9837 10.6654 11.6853 10.6654 11.3171C10.6654 10.9489 10.3669 10.6504 9.9987 10.6504C9.6305 10.6504 9.33203 10.9489 9.33203 11.3171C9.33203 11.6853 9.6305 11.9837 9.9987 11.9837Z" fill="#5C6677"/>
</svg>
